<?xml version="1.0" encoding="utf-8"?>
<!-- Generator: Adobe Illustrator 16.0.4, SVG Export Plug-In . SVG Version: 6.00 Build 0)  -->
<svg version="1.2" baseProfile="tiny" xmlns="http://www.w3.org/2000/svg" xmlns:xlink="http://www.w3.org/1999/xlink" x="0px"
	 y="0px" width="512px" height="512px" viewBox="0 0 512 512" xml:space="preserve">
<g id="startseite" display="none">
	<rect display="inline" fill="#3B3637" width="512" height="512"/>
</g>
<g id="Produkteseite" display="none">
</g>
<g id="Repair" display="none">
	<path display="inline" fill="#FFFFFF" d="M179.597,149.731c0,0,50.2,8.245,75.489-10.992c0,0,46.352,25.499,76.583,12.749
		c0,3.569,12.827,77.025,8.245,99.931c-4.582,22.903-9.343,63.211-84.829,121.841c0,0-72.739-47.638-82.818-117.262
		C172.268,255.998,166.771,214.777,179.597,149.731"/>
	<path display="inline" fill="none" stroke="#3B3637" stroke-width="1.485" d="M192.407,165.104c0,0,41.787,6.86,62.828-9.147
		c0,0,38.584,21.215,63.752,10.606c0,2.971,10.672,64.091,6.857,83.146c-3.81,19.055-7.773,52.594-70.609,101.376
		c0,0-60.541-39.635-68.929-97.563C186.305,253.521,181.732,219.221,192.407,165.104z"/>
</g>
<g id="Repair_grey" display="none">
	<path display="inline" fill="#222222" d="M179.597,149.731c0,0,50.2,8.245,75.489-10.992c0,0,46.352,25.499,76.583,12.749
		c0,3.569,12.827,77.025,8.245,99.931c-4.582,22.903-9.343,63.211-84.829,121.841c0,0-72.739-47.638-82.818-117.262
		C172.268,255.998,166.771,214.777,179.597,149.731"/>
	<path display="inline" fill="none" stroke="#FFFFFF" stroke-width="1.485" d="M192.407,165.104c0,0,41.787,6.86,62.828-9.147
		c0,0,38.584,21.215,63.752,10.606c0,2.971,10.672,64.091,6.857,83.146c-3.81,19.055-7.773,52.594-70.609,101.376
		c0,0-60.541-39.635-68.929-97.563C186.305,253.521,181.732,219.221,192.407,165.104z"/>
</g>
<g id="Whitening" display="none">
	<g display="inline">
		<path fill="#FFFFFF" d="M161.313,162.135l25.517,39.175h-52.37L161.313,162.135z M202.905,195.938l-26.288-40.359h61.428
			L202.905,195.938z M309.185,195.938l-35.139-40.359h61.427L309.185,195.938z M377.625,201.311h-52.366l25.513-39.175
			L377.625,201.311z M234.656,329.979l-97.747-112.262h59.192L234.656,329.979z M256.063,341.798l-42.616-124.08h85.192
			L256.063,341.798z M277.432,329.979l38.552-112.262h59.195L277.432,329.979z M256.063,159.867l36.05,41.444h-72.142
			L256.063,159.867z M262.224,372.435l137.005-157.368c1.352-1.458,2.18-3.409,2.18-5.553c0-1.894-0.641-3.634-1.717-5.021
			l-42.28-61.684c-0.009-0.016-0.022-0.032-0.034-0.048l-0.012-0.02c-0.009-0.017-0.02-0.028-0.028-0.041
			c-0.166-0.234-0.344-0.464-0.536-0.685c-0.059-0.064-0.115-0.121-0.174-0.189c-0.149-0.161-0.306-0.319-0.467-0.463
			c-0.078-0.076-0.157-0.145-0.236-0.214c-0.151-0.129-0.312-0.254-0.477-0.375c-0.09-0.064-0.177-0.136-0.272-0.198
			c-0.035-0.02-0.062-0.048-0.1-0.068c-0.157-0.109-0.321-0.198-0.485-0.287c-0.067-0.036-0.132-0.08-0.197-0.117
			c-0.279-0.145-0.561-0.27-0.844-0.382c-0.042-0.012-0.086-0.025-0.126-0.041c-0.251-0.093-0.503-0.169-0.757-0.238
			c-0.078-0.02-0.162-0.036-0.244-0.056c-0.223-0.049-0.443-0.089-0.668-0.125c-0.091-0.013-0.182-0.024-0.271-0.037
			c-0.242-0.024-0.484-0.037-0.725-0.041c-0.052,0-0.107-0.011-0.158-0.011H161.486c-0.049,0-0.099,0.011-0.147,0.011
			c-0.244,0.004-0.492,0.017-0.735,0.041c-0.087,0.012-0.178,0.024-0.264,0.037c-0.229,0.032-0.454,0.076-0.682,0.125
			c-0.078,0.02-0.157,0.036-0.235,0.056c-0.256,0.069-0.512,0.145-0.764,0.242c-0.036,0.012-0.078,0.024-0.115,0.037
			c-0.288,0.113-0.57,0.237-0.85,0.382c-0.066,0.032-0.127,0.081-0.194,0.117c-0.165,0.089-0.33,0.178-0.488,0.287
			c-0.036,0.02-0.066,0.048-0.102,0.068c-0.091,0.062-0.178,0.133-0.268,0.198c-0.165,0.121-0.327,0.246-0.479,0.375
			c-0.083,0.069-0.157,0.138-0.234,0.21c-0.165,0.148-0.323,0.306-0.472,0.471c-0.058,0.065-0.115,0.121-0.169,0.182
			c-0.193,0.229-0.378,0.463-0.543,0.701c-0.008,0.007-0.016,0.02-0.021,0.028l-0.01,0.012c-0.016,0.021-0.029,0.041-0.04,0.06
			l-42.542,62.063c-0.02,0.031-0.036,0.064-0.058,0.1c-0.099,0.141-0.182,0.298-0.268,0.452c-0.107,0.185-0.213,0.371-0.304,0.56
			c-0.021,0.049-0.052,0.085-0.072,0.125c-0.05,0.117-0.082,0.233-0.123,0.343c-0.083,0.201-0.165,0.406-0.228,0.612
			c-0.055,0.165-0.095,0.334-0.133,0.503c-0.048,0.197-0.098,0.395-0.131,0.6c-0.03,0.174-0.05,0.347-0.066,0.524
			c-0.016,0.197-0.033,0.403-0.04,0.601c-0.007,0.177,0,0.355,0.007,0.532c0.009,0.197,0.021,0.399,0.045,0.596
			c0.016,0.178,0.042,0.351,0.075,0.524c0.033,0.197,0.079,0.394,0.129,0.592c0.04,0.173,0.09,0.343,0.147,0.512
			c0.058,0.189,0.132,0.375,0.207,0.56c0.068,0.169,0.143,0.338,0.222,0.508c0.038,0.069,0.062,0.145,0.098,0.213
			c0.054,0.112,0.129,0.206,0.192,0.31c0.09,0.157,0.185,0.314,0.288,0.468c0.118,0.177,0.247,0.346,0.382,0.511
			c0.072,0.089,0.134,0.189,0.208,0.274l137.162,157.537c0,0.003,0.004,0.003,0.004,0.007c0.039,0.039,0.079,0.087,0.118,0.127
			c0.036,0.04,0.07,0.076,0.106,0.11c0.115,0.128,0.235,0.241,0.359,0.359c0.02,0.02,0.042,0.037,0.062,0.057
			c0.054,0.054,0.111,0.097,0.169,0.145c0.123,0.113,0.252,0.211,0.383,0.315c0.01,0.009,0.018,0.016,0.03,0.022
			c0.02,0.017,0.044,0.037,0.065,0.057c0.038,0.023,0.07,0.051,0.108,0.074c0.189,0.141,0.387,0.268,0.59,0.389
			c0.041,0.021,0.083,0.048,0.12,0.067c0.179,0.1,0.365,0.197,0.546,0.285c0.039,0.017,0.076,0.04,0.114,0.057
			c0.04,0.017,0.087,0.03,0.128,0.047c0.165,0.074,0.338,0.147,0.511,0.207c0.039,0.011,0.075,0.031,0.111,0.045
			c0.019,0.003,0.031,0.006,0.043,0.009c0.023,0.008,0.045,0.017,0.07,0.027c0.135,0.043,0.271,0.081,0.407,0.114
			c0.062,0.017,0.124,0.036,0.19,0.058c0.057,0.013,0.111,0.029,0.17,0.04c0.04,0.009,0.083,0.014,0.123,0.02
			c0.062,0.017,0.123,0.026,0.186,0.037c0.059,0.014,0.116,0.022,0.169,0.033c0.11,0.021,0.228,0.037,0.339,0.048
			c0.051,0.003,0.099,0.013,0.145,0.016c0.012,0,0.024,0.004,0.037,0.004c0.045,0.003,0.09,0.013,0.133,0.017
			c0.217,0.018,0.438,0.023,0.654,0.023c0.219,0,0.438-0.006,0.652-0.023c0.047-0.004,0.091-0.014,0.141-0.017
			c0.009,0,0.021-0.004,0.029-0.004c0.049-0.003,0.097-0.013,0.145-0.016c0.114-0.011,0.224-0.027,0.336-0.045
			c0.062-0.014,0.119-0.022,0.177-0.036c0.061-0.011,0.119-0.021,0.181-0.037c0.037-0.006,0.083-0.011,0.123-0.02
			c0.055-0.011,0.11-0.027,0.169-0.04c0.061-0.021,0.126-0.041,0.19-0.058c0.132-0.033,0.271-0.071,0.404-0.114
			c0.021-0.011,0.046-0.02,0.071-0.027c0.011-0.003,0.023-0.006,0.033-0.009c0.043-0.014,0.081-0.034,0.117-0.045
			c0.173-0.06,0.341-0.133,0.51-0.203c0.04-0.021,0.089-0.034,0.128-0.051c0.035-0.017,0.073-0.04,0.104-0.057
			c0.187-0.088,0.367-0.186,0.544-0.285c0.04-0.02,0.082-0.047,0.119-0.067c0.204-0.121,0.398-0.248,0.591-0.389
			c0.032-0.023,0.068-0.051,0.103-0.074c0.022-0.02,0.047-0.04,0.07-0.06c0.012-0.008,0.02-0.011,0.025-0.02
			c0.134-0.104,0.262-0.202,0.385-0.315c0.057-0.048,0.108-0.091,0.168-0.145c0.021-0.017,0.036-0.037,0.057-0.057
			c0.129-0.118,0.245-0.231,0.362-0.362c0.033-0.037,0.07-0.067,0.104-0.107c0.04-0.04,0.075-0.088,0.116-0.127
			C262.218,372.438,262.218,372.438,262.224,372.435"/>
	</g>
</g>
<g id="Whitening_grey" display="none">
	<g display="inline">
		<path fill="#222222" d="M161.313,162.135l25.517,39.175h-52.37L161.313,162.135z M202.905,195.938l-26.288-40.359h61.428
			L202.905,195.938z M309.185,195.938l-35.139-40.359h61.427L309.185,195.938z M377.625,201.311h-52.366l25.513-39.175
			L377.625,201.311z M234.656,329.979l-97.747-112.262h59.192L234.656,329.979z M256.063,341.798l-42.616-124.08h85.192
			L256.063,341.798z M277.432,329.979l38.552-112.262h59.195L277.432,329.979z M256.063,159.867l36.05,41.444h-72.142
			L256.063,159.867z M262.224,372.435l137.005-157.368c1.352-1.458,2.18-3.409,2.18-5.553c0-1.894-0.641-3.634-1.717-5.021
			l-42.28-61.684c-0.009-0.016-0.022-0.032-0.034-0.048l-0.012-0.02c-0.009-0.017-0.02-0.028-0.028-0.041
			c-0.166-0.234-0.344-0.464-0.536-0.685c-0.059-0.064-0.115-0.121-0.174-0.189c-0.149-0.161-0.306-0.319-0.467-0.463
			c-0.078-0.076-0.157-0.145-0.236-0.214c-0.151-0.129-0.312-0.254-0.477-0.375c-0.09-0.064-0.177-0.136-0.272-0.198
			c-0.035-0.02-0.062-0.048-0.1-0.068c-0.157-0.109-0.321-0.198-0.485-0.287c-0.067-0.036-0.132-0.08-0.197-0.117
			c-0.279-0.145-0.561-0.27-0.844-0.382c-0.042-0.012-0.086-0.025-0.126-0.041c-0.251-0.093-0.503-0.169-0.757-0.238
			c-0.078-0.02-0.162-0.036-0.244-0.056c-0.223-0.049-0.443-0.089-0.668-0.125c-0.091-0.013-0.182-0.024-0.271-0.037
			c-0.242-0.024-0.484-0.037-0.725-0.041c-0.052,0-0.107-0.011-0.158-0.011H161.486c-0.049,0-0.099,0.011-0.147,0.011
			c-0.244,0.004-0.492,0.017-0.735,0.041c-0.087,0.012-0.178,0.024-0.264,0.037c-0.229,0.032-0.454,0.076-0.682,0.125
			c-0.078,0.02-0.157,0.036-0.235,0.056c-0.256,0.069-0.512,0.145-0.764,0.242c-0.036,0.012-0.078,0.024-0.115,0.037
			c-0.288,0.113-0.57,0.237-0.85,0.382c-0.066,0.032-0.127,0.081-0.194,0.117c-0.165,0.089-0.33,0.178-0.488,0.287
			c-0.036,0.02-0.066,0.048-0.102,0.068c-0.091,0.062-0.178,0.133-0.268,0.198c-0.165,0.121-0.327,0.246-0.479,0.375
			c-0.083,0.069-0.157,0.138-0.234,0.21c-0.165,0.148-0.323,0.306-0.472,0.471c-0.058,0.065-0.115,0.121-0.169,0.182
			c-0.193,0.229-0.378,0.463-0.543,0.701c-0.008,0.007-0.016,0.02-0.021,0.028l-0.01,0.012c-0.016,0.021-0.029,0.041-0.04,0.06
			l-42.542,62.063c-0.02,0.031-0.036,0.064-0.058,0.1c-0.099,0.141-0.182,0.298-0.268,0.452c-0.107,0.185-0.213,0.371-0.304,0.56
			c-0.021,0.049-0.052,0.085-0.072,0.125c-0.05,0.117-0.082,0.233-0.123,0.343c-0.083,0.201-0.165,0.406-0.228,0.612
			c-0.055,0.165-0.095,0.334-0.133,0.503c-0.048,0.197-0.098,0.395-0.131,0.6c-0.03,0.174-0.05,0.347-0.066,0.524
			c-0.016,0.197-0.033,0.403-0.04,0.601c-0.007,0.177,0,0.355,0.007,0.532c0.009,0.197,0.021,0.399,0.045,0.596
			c0.016,0.178,0.042,0.351,0.075,0.524c0.033,0.197,0.079,0.394,0.129,0.592c0.04,0.173,0.09,0.343,0.147,0.512
			c0.058,0.189,0.132,0.375,0.207,0.56c0.068,0.169,0.143,0.338,0.222,0.508c0.038,0.069,0.062,0.145,0.098,0.213
			c0.054,0.112,0.129,0.206,0.192,0.31c0.09,0.157,0.185,0.314,0.288,0.468c0.118,0.177,0.247,0.346,0.382,0.511
			c0.072,0.089,0.134,0.189,0.208,0.274l137.162,157.537c0,0.003,0.004,0.003,0.004,0.007c0.039,0.039,0.079,0.087,0.118,0.127
			c0.036,0.04,0.07,0.076,0.106,0.11c0.115,0.128,0.235,0.241,0.359,0.359c0.02,0.02,0.042,0.037,0.062,0.057
			c0.054,0.054,0.111,0.097,0.169,0.145c0.123,0.113,0.252,0.211,0.383,0.315c0.01,0.009,0.018,0.016,0.03,0.022
			c0.02,0.017,0.044,0.037,0.065,0.057c0.038,0.023,0.07,0.051,0.108,0.074c0.189,0.141,0.387,0.268,0.59,0.389
			c0.041,0.021,0.083,0.048,0.12,0.067c0.179,0.1,0.365,0.197,0.546,0.285c0.039,0.017,0.076,0.04,0.114,0.057
			c0.04,0.017,0.087,0.03,0.128,0.047c0.165,0.074,0.338,0.147,0.511,0.207c0.039,0.011,0.075,0.031,0.111,0.045
			c0.019,0.003,0.031,0.006,0.043,0.009c0.023,0.008,0.045,0.017,0.07,0.027c0.135,0.043,0.271,0.081,0.407,0.114
			c0.062,0.017,0.124,0.036,0.19,0.058c0.057,0.013,0.111,0.029,0.17,0.04c0.04,0.009,0.083,0.014,0.123,0.02
			c0.062,0.017,0.123,0.026,0.186,0.037c0.059,0.014,0.116,0.022,0.169,0.033c0.11,0.021,0.228,0.037,0.339,0.048
			c0.051,0.003,0.099,0.013,0.145,0.016c0.012,0,0.024,0.004,0.037,0.004c0.045,0.003,0.09,0.013,0.133,0.017
			c0.217,0.018,0.438,0.023,0.654,0.023c0.219,0,0.438-0.006,0.652-0.023c0.047-0.004,0.091-0.014,0.141-0.017
			c0.009,0,0.021-0.004,0.029-0.004c0.049-0.003,0.097-0.013,0.145-0.016c0.114-0.011,0.224-0.027,0.336-0.045
			c0.062-0.014,0.119-0.022,0.177-0.036c0.061-0.011,0.119-0.021,0.181-0.037c0.037-0.006,0.083-0.011,0.123-0.02
			c0.055-0.011,0.11-0.027,0.169-0.04c0.061-0.021,0.126-0.041,0.19-0.058c0.132-0.033,0.271-0.071,0.404-0.114
			c0.021-0.011,0.046-0.02,0.071-0.027c0.011-0.003,0.023-0.006,0.033-0.009c0.043-0.014,0.081-0.034,0.117-0.045
			c0.173-0.06,0.341-0.133,0.51-0.203c0.04-0.021,0.089-0.034,0.128-0.051c0.035-0.017,0.073-0.04,0.104-0.057
			c0.187-0.088,0.367-0.186,0.544-0.285c0.04-0.02,0.082-0.047,0.119-0.067c0.204-0.121,0.398-0.248,0.591-0.389
			c0.032-0.023,0.068-0.051,0.103-0.074c0.022-0.02,0.047-0.04,0.07-0.06c0.012-0.008,0.02-0.011,0.025-0.02
			c0.134-0.104,0.262-0.202,0.385-0.315c0.057-0.048,0.108-0.091,0.168-0.145c0.021-0.017,0.036-0.037,0.057-0.057
			c0.129-0.118,0.245-0.231,0.362-0.362c0.033-0.037,0.07-0.067,0.104-0.107c0.04-0.04,0.075-0.088,0.116-0.127
			C262.218,372.438,262.218,372.438,262.224,372.435"/>
	</g>
</g>
<g id="Fluoridfrei" display="none">
	<g display="inline">
		<path fill="#FFFFFF" d="M192.4,222.368c22.82,0,41.315-18.5,41.315-41.316c0-22.82-18.496-41.319-41.315-41.319
			c-22.82,0-41.316,18.5-41.316,41.319C151.084,203.868,169.58,222.368,192.4,222.368"/>
		<path fill="#FFFFFF" d="M233.715,373.26c22.82,0,41.317-18.5,41.317-41.316c0-22.82-18.497-41.319-41.317-41.319
			c-22.82,0-41.315,18.499-41.315,41.319C192.4,354.76,210.896,373.26,233.715,373.26"/>
		<path fill="#FFFFFF" d="M331.562,297.812c22.818,0,41.314-18.499,41.314-41.312c0-22.82-18.496-41.319-41.314-41.319
			c-22.821,0-41.316,18.499-41.316,41.319C290.245,279.312,308.74,297.812,331.562,297.812"/>
		<line fill="none" stroke="#FFFFFF" stroke-width="3.892" x1="192.4" y1="181.052" x2="233.715" y2="331.939"/>
		<line fill="none" stroke="#FFFFFF" stroke-width="3.892" x1="233.887" y1="332.086" x2="325.247" y2="252.736"/>
	</g>
</g>
<g id="Fluoridfrei_grey" display="none">
	<g display="inline">
		<path fill="#222222" d="M192.4,222.368c22.82,0,41.315-18.5,41.315-41.316c0-22.82-18.496-41.319-41.315-41.319
			c-22.82,0-41.316,18.5-41.316,41.319C151.084,203.868,169.58,222.368,192.4,222.368"/>
		<path fill="#222222" d="M233.715,373.26c22.82,0,41.317-18.5,41.317-41.316c0-22.82-18.497-41.319-41.317-41.319
			c-22.82,0-41.315,18.499-41.315,41.319C192.4,354.76,210.896,373.26,233.715,373.26"/>
		<path fill="#222222" d="M331.562,297.812c22.818,0,41.314-18.499,41.314-41.312c0-22.82-18.496-41.319-41.314-41.319
			c-22.821,0-41.316,18.499-41.316,41.319C290.245,279.312,308.74,297.812,331.562,297.812"/>
		<line fill="none" stroke="#222222" stroke-width="3.892" x1="192.4" y1="181.052" x2="233.715" y2="331.939"/>
		<line fill="none" stroke="#222222" stroke-width="3.892" x1="233.887" y1="332.086" x2="325.247" y2="252.736"/>
	</g>
</g>
<g id="Vegan">
	<g>
		<path fill="#FFFFFF" d="M400.347,181.719c-4.688-1.351-11.042-3.557-17.494-4.095c-6.521-0.702-13.951-0.909-22.031-0.482
			c-7.856,0.594-15.881,2.316-24.441,4.522c-8.562,2.206-16.434,5.873-24.774,9.912c-8.188,4.151-15.673,9.361-23.105,15.027
			c-7.059,5.859-13.785,12.325-19.864,19.218c-5.722,7.059-11.43,14.323-15.822,22.084c-4.475,7.694-8.349,15.662-11.161,23.795
			c-6.024,16.045-8.45,32.586-8.671,47.337c0,7.487,0.441,14.437,1.405,20.789c0.759,6.3,2.372,12.16,3.613,16.903
			c0.482,2.205,1.185,4.37,1.875,6.188c1.187-2.466,2.481-5.169,3.943-8.077c7.266-14.421,17.871-33.17,30.25-50.664
			c6.134-8.838,12.933-17.174,19.493-24.716c3.502-3.611,6.894-7.112,10.078-10.45c3.392-3.072,6.617-5.981,9.581-8.67
			c3.227-2.371,6.19-4.577,8.782-6.576c2.468-2.041,5.114-3.282,7.044-4.522c3.985-2.371,6.301-3.708,6.301-3.708
			s-2.151,1.558-5.969,4.191c-1.834,1.406-4.314,2.813-6.632,5.073c-2.413,2.096-5.115,4.467-8.133,7.101
			c-2.689,2.854-5.653,5.983-8.769,9.263c-2.854,3.503-5.873,7.169-9.001,10.987c-5.86,7.913-11.844,16.582-17.179,25.682
			c-10.712,18.046-19.549,37.166-25.54,51.697c-1.683,4.094-3.098,7.762-4.339,10.987c2.598-0.703,5.855-1.447,9.365-2.689
			c4.412-1.558,10.119-3.129,15.675-5.39c5.708-2.206,11.731-4.728,17.88-7.691c6.189-2.854,12.215-6.246,18.419-9.801
			c6.19-3.558,12.007-7.598,17.825-11.746c5.652-4.357,11.304-8.728,16.364-13.566c5.059-4.963,10.118-9.636,14.544-15.027
			c8.987-10.338,16.693-21.434,22.995-33.11c3.225-5.501,5.968-11.911,8.616-17.729c2.688-5.708,5.004-12.104,7.265-17.922
			c2.263-5.763,4.411-11.581,6.302-17.233c1.998-5.873,3.762-10.933,5.279-15.136c1.666-4.15,2.742-8.451,3.707-11.044
			c0.925-2.909,1.352-4.411,1.352-4.411s-1.352-0.814-3.93-2C409.019,185,405.035,182.96,400.347,181.719z"/>
		<path fill="#FFFFFF" d="M88.724,189.094c-1.352,4.687-3.557,11.043-4.094,17.509c-0.425,3.966-0.67,8.233-0.703,12.769v1.539
			c0.009,2.494,0.076,5.06,0.22,7.709c0.593,7.872,2.261,15.895,4.522,24.455c2.205,8.562,5.873,16.419,9.898,24.815
			c4.149,8.134,9.375,15.617,15.026,23.049c5.873,7.112,12.338,13.785,19.231,19.878c7.058,5.708,14.324,11.414,22.126,15.771
			c7.706,4.468,15.619,8.409,23.753,11.207c16.047,6.026,32.631,8.397,47.341,8.674c0.634,0,1.186-0.056,1.779-0.111
			c-1.572-10.339-2.165-20.845-1.944-31.445c-4.908-3.074-9.802-6.095-14.709-9.541c-8.768-6.135-17.123-12.917-24.705-19.492
			c-3.612-3.5-7.113-6.893-10.395-10.062c-3.129-3.392-5.983-6.63-8.727-9.596c-2.371-3.226-4.577-6.189-6.521-8.768
			c-2.096-2.481-3.281-5.114-4.521-7.058c-2.373-3.983-3.724-6.3-3.724-6.3s1.518,2.206,4.206,5.969
			c1.351,1.834,2.743,4.315,5.003,6.631c2.11,2.426,4.537,5.169,7.115,8.135c2.908,2.688,5.982,5.65,9.263,8.78
			c3.502,2.854,7.21,5.859,10.988,8.987c7.969,5.87,16.64,11.841,25.684,17.121c3.777,2.262,7.541,4.26,11.359,6.244
			c1.24-20.25,5.39-40.279,11.635-58.531c-3.611-4.632-7.209-9.154-11.193-13.304c-4.963-5.059-9.596-10.118-15.027-14.53
			c-10.34-9.057-21.437-16.751-33.127-22.995c-5.487-3.295-11.898-5.984-17.66-8.616c-5.763-2.703-12.118-5.019-17.991-7.28
			c-5.763-2.261-11.566-4.411-17.232-6.245c-5.804-2.095-10.877-3.874-15.068-5.335c-4.149-1.668-8.519-2.743-11.097-3.709
			c-2.854-0.869-4.357-1.351-4.357-1.351s-0.869,1.407-2.055,3.929C92.061,180.478,89.965,184.407,88.724,189.094z"/>
	</g>
</g>
<g id="Vegan_vegan_grey">
	<g>
		<path fill="#222222" d="M400.347,181.719c-4.688-1.351-11.042-3.557-17.494-4.095c-6.521-0.702-13.951-0.909-22.031-0.482
			c-7.856,0.594-15.881,2.316-24.441,4.522c-8.562,2.206-16.434,5.873-24.774,9.912c-8.188,4.151-15.673,9.361-23.105,15.027
			c-7.059,5.859-13.785,12.325-19.864,19.218c-5.722,7.059-11.43,14.323-15.822,22.084c-4.475,7.694-8.349,15.662-11.161,23.795
			c-6.024,16.045-8.45,32.586-8.671,47.337c0,7.487,0.441,14.437,1.405,20.789c0.759,6.3,2.372,12.16,3.613,16.903
			c0.482,2.205,1.185,4.37,1.875,6.188c1.187-2.466,2.481-5.169,3.943-8.077c7.266-14.421,17.871-33.17,30.25-50.664
			c6.134-8.838,12.933-17.174,19.493-24.716c3.502-3.611,6.894-7.112,10.078-10.45c3.392-3.072,6.617-5.981,9.581-8.67
			c3.227-2.371,6.19-4.577,8.782-6.576c2.468-2.041,5.114-3.282,7.044-4.522c3.985-2.371,6.301-3.708,6.301-3.708
			s-2.151,1.558-5.969,4.191c-1.834,1.406-4.314,2.813-6.632,5.073c-2.413,2.096-5.115,4.467-8.133,7.101
			c-2.689,2.854-5.653,5.983-8.769,9.263c-2.854,3.503-5.873,7.169-9.001,10.987c-5.86,7.913-11.844,16.582-17.179,25.682
			c-10.712,18.046-19.549,37.166-25.54,51.697c-1.683,4.094-3.098,7.762-4.339,10.987c2.598-0.703,5.855-1.447,9.365-2.689
			c4.412-1.558,10.119-3.129,15.675-5.39c5.708-2.206,11.731-4.728,17.88-7.691c6.189-2.854,12.215-6.246,18.419-9.801
			c6.19-3.558,12.007-7.598,17.825-11.746c5.652-4.357,11.304-8.728,16.364-13.566c5.059-4.963,10.118-9.636,14.544-15.027
			c8.987-10.338,16.693-21.434,22.995-33.11c3.225-5.501,5.968-11.911,8.616-17.729c2.688-5.708,5.004-12.104,7.265-17.922
			c2.263-5.763,4.411-11.581,6.302-17.233c1.998-5.873,3.762-10.933,5.279-15.136c1.666-4.15,2.742-8.451,3.707-11.044
			c0.925-2.909,1.352-4.411,1.352-4.411s-1.352-0.814-3.93-2C409.019,185,405.035,182.96,400.347,181.719z"/>
		<path fill="#222222" d="M88.724,189.094c-1.352,4.687-3.557,11.043-4.094,17.509c-0.425,3.966-0.67,8.233-0.703,12.769v1.539
			c0.009,2.494,0.076,5.06,0.22,7.709c0.593,7.872,2.261,15.895,4.522,24.455c2.205,8.562,5.873,16.419,9.898,24.815
			c4.149,8.134,9.375,15.617,15.026,23.049c5.873,7.112,12.338,13.785,19.231,19.878c7.058,5.708,14.324,11.414,22.126,15.771
			c7.706,4.468,15.619,8.409,23.753,11.207c16.047,6.026,32.631,8.397,47.341,8.674c0.634,0,1.186-0.056,1.779-0.111
			c-1.572-10.339-2.165-20.845-1.944-31.445c-4.908-3.074-9.802-6.095-14.709-9.541c-8.768-6.135-17.123-12.917-24.705-19.492
			c-3.612-3.5-7.113-6.893-10.395-10.062c-3.129-3.392-5.983-6.63-8.727-9.596c-2.371-3.226-4.577-6.189-6.521-8.768
			c-2.096-2.481-3.281-5.114-4.521-7.058c-2.373-3.983-3.724-6.3-3.724-6.3s1.518,2.206,4.206,5.969
			c1.351,1.834,2.743,4.315,5.003,6.631c2.11,2.426,4.537,5.169,7.115,8.135c2.908,2.688,5.982,5.65,9.263,8.78
			c3.502,2.854,7.21,5.859,10.988,8.987c7.969,5.87,16.64,11.841,25.684,17.121c3.777,2.262,7.541,4.26,11.359,6.244
			c1.24-20.25,5.39-40.279,11.635-58.531c-3.611-4.632-7.209-9.154-11.193-13.304c-4.963-5.059-9.596-10.118-15.027-14.53
			c-10.34-9.057-21.437-16.751-33.127-22.995c-5.487-3.295-11.898-5.984-17.66-8.616c-5.763-2.703-12.118-5.019-17.991-7.28
			c-5.763-2.261-11.566-4.411-17.232-6.245c-5.804-2.095-10.877-3.874-15.068-5.335c-4.149-1.668-8.519-2.743-11.097-3.709
			c-2.854-0.869-4.357-1.351-4.357-1.351s-0.869,1.407-2.055,3.929C92.061,180.478,89.965,184.407,88.724,189.094z"/>
	</g>
</g>
<g id="Mundegruch" display="none">
	<path display="inline" fill="#FFFFFF" d="M412.202,232.068c-0.095-0.137-0.227-0.23-0.326-0.364
		c-0.597-0.745-1.306-1.422-2.107-2.049c-0.011-0.005-0.015-0.011-0.022-0.016c-2.554-1.987-6.082-3.317-10.651-3.317l-1.256,0.018
		c-3.663,0-9.009-1.833-14.685-3.777c-2.075-0.713-4.215-1.434-6.394-2.131c-9.338-2.968-17.806-6.914-26.003-10.724
		c-16.328-7.593-33.219-15.453-56.525-15.453c-19.862,0-31.51,6.028-38.202,12.004c-6.707-5.976-18.402-12.004-38.258-12.004
		c-23.305,0-40.194,7.86-56.525,15.453c-8.193,3.81-16.665,7.756-26.003,10.724c-2.178,0.688-4.309,1.418-6.389,2.131
		c-5.667,1.943-11.007,3.777-15.023,3.777c-0.172-0.077-0.801-0.028-0.92-0.018c-6.054,0-10.343,2.283-12.835,5.439
		c-0.079,0.106-0.187,0.181-0.26,0.293c-1.509,2.04-2.289,4.417-2.289,6.79c0,0.241,0.057,0.482,0.071,0.726
		c0.011,0.148,0.021,0.289,0.041,0.437c0.271,3.12,1.542,6.152,3.774,8.631c7.13,7.917,14.224,16.227,21.085,24.679
		c2.641,3.261,5.685,7.387,9.15,12.084c21.929,29.691,62.732,84.97,124.382,84.97c61.595,0,102.398-55.278,124.328-84.97
		c3.465-4.697,6.51-8.823,9.147-12.084c6.822-8.4,13.906-16.708,21.061-24.653c2.242-2.475,3.523-5.519,3.795-8.663
		c0.018-0.148,0.028-0.287,0.039-0.434c0.015-0.243,0.07-0.483,0.07-0.724C414.471,236.476,413.698,234.105,412.202,232.068z
		 M332.652,277.543c-22.974,10.771-48.695,31.186-76.622,31.186c-27.99,0-53.709-20.415-76.682-31.186
		c-19.014-8.916-60.449-32.277-68.613-37.425c31.716,5.489,108.775,15.779,145.295,15.779c36.457,0,113.515-10.291,145.233-15.779
		C393.097,245.266,351.662,268.627,332.652,277.543z"/>
</g>
<g id="Zahnfleischbluten" display="none">
	<g display="inline">
		<g>
			<path fill="#FFFFFF" d="M330.633,212.895c-0.214,0-0.376,0.051-0.578,0.059c-2.359,19.325-5.565,40.332-8.547,58.987
				c-4.486,27.995-10.062,62.828-35.963,62.828c-19.61,0-23.168-19.787-28.092-47.167c-0.42-2.322-0.903-5.05-1.451-7.958
				c-0.549,2.908-1.031,5.636-1.45,7.958c-4.927,27.38-8.482,47.167-28.095,47.167c-25.902,0-31.478-34.833-35.965-62.82
				c-2.979-18.661-6.185-39.668-8.544-58.995c-0.204-0.007-0.366-0.059-0.578-0.059c-11.541,0-43.547,29.546-43.547,29.546v118.177
				c0,8.16,6.614,14.774,14.772,14.774h206.812c8.156,0,14.771-6.614,14.771-14.774V242.44
				C374.178,242.44,342.175,212.895,330.633,212.895z"/>
			<path fill="#FFFFFF" d="M256.002,233.576c18.217,0,19.697,82.727,29.542,82.727c9.85,0,14.774-28.808,17.726-47.273
				c3.803-23.744,11.818-74.601,11.818-100.451c0-27.259-21.962-29.544-29.544-29.544s-16.887,4.616-29.542,4.616
				c-12.66,0-21.963-4.616-29.545-4.616c-7.582,0-29.546,2.286-29.546,29.544c0,25.851,8.02,76.708,11.818,100.451
				c2.956,18.466,7.88,47.273,17.728,47.273C236.305,316.303,237.783,233.576,256.002,233.576z"/>
		</g>
		<g>
			<g>
				<path fill="#3B3637" d="M356.471,315.468c-4.771-7.873-10.078-14.689-12.816-18.05c-0.364-0.449-0.916-0.711-1.498-0.711
					c-0.578,0-1.13,0.262-1.494,0.711c-2.738,3.36-8.042,10.181-12.816,18.053c-6.146,10.147-9.264,18.536-9.264,24.937
					c0,13,10.578,23.574,23.574,23.574c13,0,23.578-10.574,23.578-23.574C365.734,334.003,362.617,325.611,356.471,315.468
					L356.471,315.468z M345.392,355.299c-1.376,0.35-2.805,0.53-4.247,0.53c-8.808,0-15.971-6.658-15.971-14.84
					c0-1.974,0.52-4.281,1.55-6.857c0.173-0.435,0.666-0.685,1.152-0.578c0.489,0.104,0.816,0.53,0.766,0.99
					c-0.06,0.552-0.093,1.094-0.093,1.604c0,8.903,7.178,16.36,16.688,17.344c0.475,0.048,0.847,0.4,0.883,0.843
					C346.157,354.776,345.852,355.182,345.392,355.299L345.392,355.299z M345.392,355.299"/>
			</g>
		</g>
	</g>
</g>
<g id="interdentalbürsten" display="none">
	<g display="inline">
		
			<path fill="#444444" stroke="#FFFFFF" stroke-width="3" stroke-linecap="square" stroke-linejoin="round" stroke-miterlimit="10" d="
			M358.372,144.928c10.67,1.605,15.894,25.627,11.676,53.656c-4.219,28.03-16.278,49.453-26.95,47.847"/>
		<g>
			
				<rect x="243.376" y="177.462" transform="matrix(0.149 -0.9888 0.9888 0.149 32.4545 395.6333)" fill="#FFFFFF" width="5.396" height="3.001"/>
			<path fill="#FFFFFF" d="M244.996,176.071l-1.295-0.195l1.524-10.125c0.103-0.691-0.246-1.314-0.78-1.394
				c-0.003,0-0.003,0-0.003,0s0,0-0.002,0c-0.536-0.081-1.051,0.411-1.156,1.103l-1.523,10.125l-4.807-0.723l1.524-10.125
				c0.103-0.691-0.246-1.314-0.779-1.394c-0.535-0.081-1.054,0.411-1.158,1.103l-1.523,10.125l-4.806-0.723l1.523-10.125
				c0.104-0.692-0.246-1.313-0.779-1.394c-0.001,0-0.001,0-0.004-0.001c-0.535-0.08-1.051,0.412-1.156,1.104l-1.523,10.125
				l-4.809-0.724l1.524-10.125c0.103-0.691-0.245-1.313-0.78-1.394c-0.533-0.081-1.049,0.412-1.153,1.103l-1.523,10.125l-4.81-0.724
				l1.523-10.124c0.104-0.692-0.245-1.314-0.782-1.395c-0.531-0.08-1.048,0.412-1.152,1.104l-1.523,10.125l-4.809-0.724
				l1.523-10.125c0.104-0.691-0.244-1.314-0.78-1.395c0,0,0,0-0.003,0c-0.537-0.081-1.054,0.411-1.157,1.103l-1.524,10.125
				l-4.805-0.723l1.523-10.125c0.104-0.692-0.245-1.314-0.778-1.395c-0.539-0.08-1.054,0.412-1.159,1.104l-1.523,10.125
				l-4.807-0.724l1.523-10.125c0.104-0.691-0.245-1.313-0.778-1.394c-0.004,0-0.004,0-0.004,0s0,0-0.001,0
				c-0.532-0.08-1.053,0.411-1.157,1.103l-1.523,10.125l-4.806-0.723l1.523-10.125c0.104-0.692-0.244-1.314-0.777-1.395
				c-0.536-0.081-1.054,0.411-1.158,1.103l-1.523,10.125l-4.805-0.723l1.524-10.125c0.103-0.692-0.248-1.314-0.781-1.395
				c-0.535-0.08-1.054,0.412-1.159,1.103l-1.523,10.125l-4.806-0.723l1.523-10.125c0.104-0.692-0.245-1.314-0.778-1.394
				c-0.004-0.001-0.004-0.001-0.004-0.001s0,0-0.001,0c-0.536-0.081-1.049,0.412-1.152,1.104l-1.524,10.125l-4.81-0.724
				l1.524-10.125c0.103-0.692-0.245-1.313-0.782-1.395c-0.532-0.08-1.049,0.413-1.152,1.104l-1.524,10.125l-4.808-0.723
				l1.523-10.125c0.104-0.692-0.246-1.314-0.78-1.395c0,0,0,0-0.003,0c-0.534-0.081-1.054,0.411-1.158,1.103l-1.523,10.125
				l-4.806-0.724l1.523-10.125c0.104-0.691-0.246-1.313-0.779-1.394c-0.537-0.081-1.054,0.412-1.157,1.103l-1.524,10.125
				l-0.731-0.11l-4.773-0.718l-4.805-0.723c-1.474-0.222-2.849,0.792-3.072,2.267c-0.221,1.473,0.795,2.848,2.268,3.069l4.806,0.724
				l4.772,0.718l0.732,0.109l-1.524,10.127c-0.103,0.689,0.247,1.311,0.784,1.392c0.533,0.08,1.05-0.412,1.153-1.101l1.525-10.127
				l4.806,0.724l-1.525,10.126c-0.103,0.689,0.248,1.312,0.783,1.393c0.002,0,0.002,0,0.002,0c0.535,0.081,1.052-0.412,1.156-1.101
				l1.523-10.127l4.809,0.724l-1.524,10.127c-0.103,0.689,0.247,1.311,0.777,1.392c0.537,0.081,1.054-0.411,1.157-1.101
				l1.524-10.127l4.81,0.724l-1.524,10.127c-0.103,0.689,0.241,1.312,0.778,1.392c0.001,0,0.001,0,0.001,0s0,0,0.002,0
				c0.535,0.081,1.052-0.411,1.155-1.101l1.524-10.127l4.805,0.723l-1.523,10.127c-0.104,0.689,0.249,1.312,0.782,1.393
				c0.534,0.081,1.053-0.412,1.156-1.101l1.524-10.127l4.804,0.723l-1.523,10.126c-0.104,0.689,0.248,1.313,0.783,1.394
				c0.533,0.08,1.05-0.413,1.153-1.102l1.524-10.127l4.806,0.723l-1.524,10.127c-0.103,0.689,0.249,1.312,0.782,1.393l0,0
				c0,0,0,0,0.005,0c0.533,0.081,1.049-0.411,1.153-1.1l1.523-10.128l4.807,0.723l-1.523,10.127
				c-0.103,0.689,0.245,1.312,0.782,1.393c0.533,0.081,1.05-0.412,1.155-1.101l1.523-10.127l4.806,0.723l-1.524,10.127
				c-0.104,0.689,0.246,1.312,0.783,1.393c0.003,0,0.003,0,0.003,0c0.534,0.08,1.051-0.412,1.154-1.101l1.525-10.127l4.809,0.723
				l-1.524,10.127c-0.104,0.689,0.245,1.312,0.776,1.391c0.539,0.082,1.055-0.41,1.159-1.1l1.523-10.127l4.81,0.724l-1.523,10.127
				c-0.104,0.689,0.245,1.312,0.777,1.392c0.534,0.08,1.051-0.413,1.154-1.102l1.524-10.127l4.809,0.723l-1.523,10.128
				c-0.104,0.689,0.244,1.311,0.78,1.391c0.002,0,0.002,0,0.004,0.001c0.533,0.08,1.05-0.413,1.153-1.101l1.524-10.128l4.807,0.723
				l-1.525,10.127c-0.103,0.689,0.248,1.312,0.783,1.393c0.534,0.08,1.05-0.412,1.154-1.101l1.523-10.127l4.806,0.723l-1.523,10.127
				c-0.104,0.689,0.245,1.312,0.781,1.392c0.001,0,0.001,0,0.001,0s0,0,0.004,0c0.533,0.081,1.05-0.411,1.153-1.101l1.524-10.126
				l1.294,0.195L244.996,176.071z"/>
		</g>
		<path fill="#444444" stroke="#FFFFFF" stroke-width="3" stroke-linejoin="round" stroke-miterlimit="10" d="M355.441,144.486
			c-0.094-0.014-0.19-0.004-0.292,0.009l0.009-0.052l-29.394-4.422l-0.375,2.5l-0.205,0.081
			c-9.867,19.174-37.737,33.965-67.94,29.958l-6.946-0.545l-2.69,17.881l0.386,0.31c1.61,0.155,3.224,0.341,4.852,0.586
			c31.144,4.687,54.844,24.181,58.351,46.047l-0.529,3.525c0,0,0.949,0.422,0.958,0.562l1.361-0.212l0.172,0.025
			c-1.062,1.664-1.797,3.561-2.106,5.622c-0.082,0.542-0.127,1.082-0.147,1.619l-23.133,113.466h-0.224v1.097l-0.649,3.184
			l0.649,0.17v9.498h30.054v-4.241l24.491-120.121c0.302-2.008,0.17-3.981-0.322-5.839c4.014-4.204,9.584-24.31,13.278-48.86
			C359.266,168.3,359.443,145.089,355.441,144.486z"/>
	</g>
</g>
<g id="zahnseide" display="none">
	<g display="inline">
		<path fill="none" stroke="#FFFFFF" stroke-width="4" stroke-miterlimit="10" d="M177.245,264.979v103.648
			c0,4.597,5.226,8.323,11.674,8.323h145.4c6.449,0,11.676-3.727,11.676-8.323V264.979H177.245z"/>
		<g>
			<circle fill="none" stroke="#D9D9D9" stroke-width="4" stroke-miterlimit="10" cx="261.619" cy="292.582" r="70.153"/>
			<circle fill="#444444" stroke="#D9D9D9" stroke-width="4" stroke-miterlimit="10" cx="261.619" cy="290.766" r="70.153"/>
			<circle fill="#444444" stroke="#D9D9D9" stroke-width="4" stroke-miterlimit="10" cx="261.619" cy="290.766" r="63.138"/>
			<circle fill="#444444" stroke="#D9D9D9" stroke-width="4" stroke-miterlimit="10" cx="261.619" cy="290.766" r="56.123"/>
			<circle fill="#444444" stroke="#D9D9D9" stroke-width="4" stroke-miterlimit="10" cx="261.62" cy="290.766" r="49.108"/>
			<circle fill="#444444" stroke="#D9D9D9" stroke-width="4" stroke-miterlimit="10" cx="261.619" cy="290.766" r="42.093"/>
			<circle fill="#444444" stroke="#D9D9D9" stroke-width="4" stroke-miterlimit="10" cx="261.62" cy="290.766" r="35.077"/>
			<circle fill="#444444" stroke="#D9D9D9" stroke-width="4" stroke-miterlimit="10" cx="261.619" cy="290.766" r="28.062"/>
			<circle fill="#444444" stroke="#D9D9D9" stroke-width="4" stroke-miterlimit="10" cx="261.621" cy="290.766" r="21.047"/>
		</g>
		<path fill="none" stroke="#FFFFFF" stroke-width="4" stroke-miterlimit="10" d="M176.663,264.979
			c-2.089-2.089-3.266-4.732-3.537-7.421c-11.737-25.14-2.044-62.049,25.674-89.769c27.719-27.72,64.628-37.411,89.767-25.675
			c2.691,0.27,5.332,1.449,7.421,3.537L176.663,264.979z"/>
	</g>
	<path display="inline" fill="none" stroke="#D9D9D9" stroke-width="4" stroke-linecap="round" stroke-miterlimit="10" d="
		M331.998,244.697c0,0-5.22-26.955,17.28-28.181c0,0,28-4.726,8.5-22.226"/>
	
		<line display="inline" fill="#FFFFFF" stroke="#D9D9D9" stroke-width="4" stroke-miterlimit="10" x1="331.758" y1="289.031" x2="331.998" y2="231.333"/>
</g>
<g id="Mundspülung" display="none">
	<g display="inline">
		<path fill="none" stroke="#FFFFFF" stroke-width="4" stroke-miterlimit="10" d="M277.08,209.915v-3.887
			c4.138-0.74,7.316-5.076,7.316-10.331v-48.153c0-5.774-3.834-10.454-8.563-10.454h-39.44c-4.729,0-8.563,4.68-8.563,10.454v48.153
			c0,5.254,3.18,9.593,7.316,10.332v4.141c-25.926,4.751-42.878,16.288-42.878,16.288V376h127.692V226.457
			C305.147,217.383,290.664,212.312,277.08,209.915z"/>
		<path fill="none" stroke="#FFFFFF" stroke-width="4" stroke-miterlimit="10" d="M241.437,231.093
			c-18.148,3.786-30.014,12.979-30.014,12.979v119.177h89.382V244.072c-10.367-7.231-20.505-11.271-30.015-13.181
			C270.79,230.891,259.533,227.951,241.437,231.093z"/>
	</g>
</g>
<g id="Zahnschaum_Wolke" display="none">
	<g display="inline">
		
			<circle fill="none" stroke="#FFFFFF" stroke-width="2" stroke-linecap="square" stroke-linejoin="round" stroke-miterlimit="10" cx="289.634" cy="191.196" r="9.028"/>
		
			<circle fill="none" stroke="#FFFFFF" stroke-width="2" stroke-linecap="square" stroke-linejoin="round" stroke-miterlimit="10" cx="313.371" cy="207.021" r="4.514"/>
		<path fill="none" stroke="#FFFFFF" stroke-width="2" stroke-linecap="square" stroke-linejoin="round" stroke-miterlimit="10" d="
			M319.4,244.194c-2.165,0-4.239,0.383-6.166,1.083c0.084-0.495,0.139-1,0.139-1.519c0-4.911-3.924-8.897-8.806-9.019
			c0.007-0.183,0.026-0.364,0.026-0.55c0-7.499-5.986-13.578-13.372-13.578c-5.554,0-10.313,3.438-12.337,8.331
			c-1.04-0.263-2.125-0.419-3.246-0.419c-7.386,0-13.373,6.079-13.373,13.578c0,1.471,0.238,2.883,0.663,4.209
			c-8.128,0.969-14.437,7.978-14.437,16.49c0,9.178,7.325,16.615,16.361,16.615c2.193,0,4.283-0.445,6.194-1.24
			c4.196,4.834,10.338,7.887,17.183,7.887c3.019,0,5.895-0.602,8.533-1.678c1.607,2.485,4.399,4.135,7.58,4.135
			c4.691,0,8.545-3.58,8.984-8.158c1.899,0.68,3.942,1.049,6.072,1.049c10.119,0,18.324-8.332,18.324-18.609
			S329.52,244.194,319.4,244.194z"/>
	</g>
</g>
<g id="Zahnbürsten" display="none">
	<g display="inline">
		<g>
			<path fill="none" d="M329.344,337.569c0,20.273-16.752,36.709-37.415,36.709c-20.66,0-37.372-16.436-37.372-36.709
				c0-20.276,16.712-36.71,37.372-36.71C312.592,300.859,329.344,317.293,329.344,337.569z"/>
			<g>
				<path fill-rule="evenodd" fill="#FFFFFF" d="M289.382,297.839c23.42-1.512,41.479,16.505,41.821,38.568
					c0.37,24.018-18.607,39.634-39.034,39.963c-22.933,0.369-39.924-17.304-39.924-39.498c0-10.682,4.963-20.816,10.663-26.953
					C268.746,303.646,278.204,298.561,289.382,297.839z M255.497,335.941c-0.599,22.955,17.539,36.392,34.812,37.175
					c20.484,0.931,37.64-15.879,37.64-36.244c0-21.068-17.633-38.002-39.498-35.781
					C270.172,302.949,255.996,316.798,255.497,335.941z"/>
			</g>
			<path fill="#FFFFFF" stroke="#FFFFFF" stroke-miterlimit="10" d="M293.912,334.666c0,1.216-0.989,2.206-2.208,2.206l0,0
				c-1.218,0-2.207-0.99-2.207-2.206v-22.77c0-1.219,0.989-2.209,2.207-2.209l0,0c1.219,0,2.208,0.99,2.208,2.209V334.666z"/>
			<path fill-rule="evenodd" fill="#FFFFFF" stroke="#FFFFFF" stroke-width="2" stroke-miterlimit="10" d="M297.341,318.154v1.634
				c7.323,2.275,12.486,9.12,12.486,17.18c0,10.182-8.576,18.588-18.819,18.123c-8.635-0.392-17.725-7.109-17.425-18.588
				c0.212-8.118,5.357-14.33,12.489-16.599v-1.665c-3.622,1.049-6.665,2.994-8.772,5.251c-2.861,3.069-5.344,8.138-5.344,13.478
				c0,11.096,8.516,19.933,19.981,19.75c10.213-0.165,19.702-7.975,19.517-19.983C311.318,327.962,305.576,320.474,297.341,318.154z
				"/>
		</g>
		<g>
			<path fill="#FFFFFF" stroke="#D9D9D9" stroke-width="0.5" stroke-miterlimit="10" d="M240.142,149.83
				c-0.438,1.858-1.627,3.168-2.656,2.925l-38.054-8.998c-1.024-0.243-1.503-1.944-1.063-3.803l0,0
				c0.44-1.858,1.628-3.167,2.656-2.925l38.052,8.999C240.105,146.271,240.581,147.975,240.142,149.83L240.142,149.83z"/>
			<path fill="#FFFFFF" stroke="#D9D9D9" stroke-width="0.5" stroke-miterlimit="10" d="M237.083,162.77
				c-0.439,1.857-1.626,3.168-2.654,2.923l-38.053-8.999c-1.027-0.241-1.502-1.944-1.064-3.802l0,0
				c0.44-1.856,1.628-3.167,2.656-2.925l38.051,8.999C237.046,159.209,237.524,160.913,237.083,162.77L237.083,162.77z"/>
			<path fill="#FFFFFF" stroke="#D9D9D9" stroke-width="0.5" stroke-miterlimit="10" d="M234.024,175.708
				c-0.438,1.858-1.627,3.165-2.654,2.923l-38.054-8.999c-1.027-0.242-1.503-1.946-1.064-3.802l0,0
				c0.438-1.858,1.628-3.167,2.653-2.926l38.053,9C233.988,172.145,234.463,173.851,234.024,175.708L234.024,175.708z"/>
			<path fill="#FFFFFF" stroke="#D9D9D9" stroke-width="0.5" stroke-miterlimit="10" d="M230.965,188.644
				c-0.441,1.855-1.626,3.167-2.657,2.925l-38.052-8.998c-1.027-0.243-1.503-1.946-1.063-3.803l0,0
				c0.44-1.857,1.628-3.167,2.655-2.925l38.053,9C230.928,185.083,231.403,186.789,230.965,188.644L230.965,188.644z"/>
			<path fill="#FFFFFF" stroke="#D9D9D9" stroke-width="0.5" stroke-miterlimit="10" d="M227.906,201.578
				c-0.44,1.858-1.629,3.168-2.657,2.924l-38.052-8.997c-1.025-0.242-1.502-1.946-1.064-3.802l0,0
				c0.44-1.858,1.628-3.166,2.656-2.924l38.053,8.996C227.867,198.019,228.345,199.723,227.906,201.578L227.906,201.578z"/>
			<path fill="#FFFFFF" stroke="#D9D9D9" stroke-width="0.5" stroke-miterlimit="10" d="M224.846,214.519
				c-0.439,1.855-1.627,3.166-2.655,2.922l-38.053-8.998c-1.027-0.242-1.502-1.945-1.064-3.801l0,0
				c0.441-1.861,1.628-3.168,2.655-2.926l38.051,8.998C224.81,210.958,225.286,212.66,224.846,214.519L224.846,214.519z"/>
		</g>
		<path fill="#444444" stroke="#FFFFFF" stroke-width="4" stroke-linejoin="round" stroke-miterlimit="10" d="M254.757,145.609
			L240,142.322c-5.122-1.143-10.594,3.848-12.218,11.145l-13.11,58.854c-0.443,1.99-0.544,3.941-0.368,5.757L181.7,352.48h-0.135
			v0.557l-0.523,2.154l0.523,0.129v14.172h19.356v-9.478l0.696,0.167l31.507-129.882l2.637,0.588
			c5.122,1.142,10.592-3.849,12.218-11.146l13.091-58.854C262.69,153.591,259.865,146.749,254.757,145.609z"/>
	</g>
</g>
</svg>
